Coordinates
version=1
nRows=22
nColumns=33
inDegrees=yes

Units are S.I. units (second, meters, Newtons, ...)
Angles are in degrees.

endheader
time	ground_thorax_rot_x	ground_thorax_rot_y	ground_thorax_rot_z	ground_thorax_tx	ground_thorax_ty	ground_thorax_tz	clav_prot_r	clav_elev_r	scapula_abduction_r	scapula_elevation_r	scapula_upward_rot_r	scapula_winging_r	shoulder_elv_r	plane_of_elev_r	axial_rot_r	elbow_flexion_r	pro_sup_r	wrist_flex_r	wrist_dev_r	clav_prot_l	clav_elev_l	scapula_abduction_l	scapula_elevation_l	scapula_upward_rot_l	scapula_winging_l	shoulder_elv_l	plane_of_elev_l	axial_rot_l	elbow_flexion_l	pro_sup_l	wrist_flex_l	wrist_dev_l	
10.9300	25.200861	30.432407	48.737333	27.882717	792.292920	-33.861186	13.475905	35.355394	29.131392	45.000000	-45.000000	1717.701813	430.203793	22.541887	-171.991849	2518.749628	176.996146	12.668432	14.238254	-11.398161	-45.000000	-35.495510	45.000000	-45.000000	4058.978887	-4605.506596	25.667895	32.076908	2870.698242	-309.284100	12.587034	-15.772368	
10.9400	25.123270	30.561158	48.913327	29.602706	790.994567	-33.769486	13.472040	35.369524	29.051126	45.000000	-45.000000	1717.837419	430.163271	22.492469	-171.848590	2518.803506	177.355464	12.614760	14.165297	-11.531193	-45.000000	-35.353177	45.000000	-45.000000	4058.925755	-4605.625697	25.575171	31.655710	2870.700622	-309.140676	12.527462	-15.690724	
10.9500	25.062980	30.694368	49.063962	31.267658	789.715267	-33.687790	13.462750	35.393079	28.965181	45.000000	-45.000000	1717.972062	430.130958	22.440835	-171.692872	2518.847959	177.693162	12.564995	14.090505	-11.662137	-45.000000	-35.210028	45.000000	-45.000000	4058.865505	-4605.746004	25.487759	31.239345	2870.705006	-309.012601	12.473435	-15.614122	
10.9600	25.000440	30.836990	49.228351	32.876619	788.453040	-33.616055	13.462607	35.401069	28.883717	45.000000	-45.000000	1718.098963	430.091235	22.391642	-171.544102	2518.914803	178.001284	12.512343	14.007339	-11.791227	-45.000000	-35.069765	45.000000	-45.000000	4058.819179	-4605.855471	25.396639	30.831762	2870.702330	-308.898420	12.421636	-15.535093	
10.9700	24.964864	30.973385	49.365244	34.429195	787.205388	-33.553899	13.448223	35.429293	28.823193	45.000000	-45.000000	1718.221524	430.051529	22.336919	-171.374325	2518.981100	178.284171	12.462378	13.927512	-11.921152	-45.000000	-34.930332	45.000000	-45.000000	4058.780104	-4605.968047	25.312077	30.444191	2870.699796	-308.800637	12.382562	-15.470039	
10.9800	24.931205	31.117900	49.509254	35.925177	785.970020	-33.500706	13.440625	35.446124	28.761477	45.000000	-45.000000	1718.337066	430.011556	22.284585	-171.199172	2519.057342	178.534878	12.411005	13.843836	-12.051473	-45.000000	-34.793236	45.000000	-45.000000	4058.749744	-4606.070487	25.221917	30.069024	2870.691892	-308.716797	12.344312	-15.403030	
10.9900	24.925861	31.257580	49.618685	37.364920	784.745010	-33.455680	13.418007	35.485030	28.707994	45.000000	-45.000000	1718.449739	429.979440	22.228156	-170.991276	2519.119217	178.754064	12.362764	13.768107	-12.178090	-45.000000	-34.659825	45.000000	-45.000000	4058.723215	-4606.181228	25.140406	29.704823	2870.685104	-308.650025	12.318448	-15.350371	
11.0000	24.921224	31.406464	49.735917	38.749159	783.529100	-33.417981	13.403361	35.510794	28.650567	45.000000	-45.000000	1718.554717	429.947512	22.173740	-170.771766	2519.191353	178.932150	12.310016	13.693596	-12.304426	-45.000000	-34.528936	45.000000	-45.000000	4058.706574	-4606.285629	25.054113	29.349610	2870.673782	-308.599232	12.294676	-15.297349	
11.0100	24.936907	31.554599	49.826925	40.079048	782.321782	-33.386751	13.376119	35.554166	28.596450	45.000000	-45.000000	1718.659187	429.922574	22.112915	-170.522968	2519.255063	179.069115	12.256724	13.620300	-12.427711	-45.000000	-34.397111	45.000000	-45.000000	4058.688799	-4606.395113	24.973642	28.999307	2870.665797	-308.566943	12.278443	-15.252108	
11.0200	24.941431	31.717197	49.936020	41.356031	781.123247	-33.361118	13.361652	35.574819	28.526907	45.000000	-45.000000	1718.755611	429.896768	22.055390	-170.266214	2519.327129	179.156687	12.197818	13.544914	-12.552248	-45.000000	-34.263320	45.000000	-45.000000	4058.673421	-4606.492263	24.886377	28.648972	2870.654679	-308.551539	12.259698	-15.199926	
11.0300	24.960555	31.879399	50.025068	42.581923	779.934175	-33.340139	13.335994	35.610714	28.460738	45.000000	-45.000000	1718.852254	429.876679	21.991496	-169.977122	2519.394223	179.197026	12.137405	13.466770	-12.673981	-45.000000	-34.129582	45.000000	-45.000000	4058.656267	-4606.592137	24.802535	28.298924	2870.643682	-308.554494	12.247166	-15.150460	
11.0400	24.970983	32.051004	50.126010	43.758689	778.755561	-33.322794	13.321012	35.627996	28.383955	45.000000	-45.000000	1718.944830	429.856340	21.932090	-169.676801	2519.474930	179.185507	12.069994	13.387795	-12.797873	-45.000000	-33.997604	45.000000	-45.000000	4058.640309	-4606.680995	24.710934	27.949308	2870.628069	-308.574483	12.233055	-15.093683	
11.0500	24.990786	32.221106	50.209758	44.888154	777.588617	-33.308021	13.296573	35.659044	28.305390	45.000000	-45.000000	1719.044038	429.843284	21.866835	-169.349599	2519.552770	179.126341	12.001008	13.299072	-12.918959	-45.000000	-33.864547	45.000000	-45.000000	4058.618263	-4606.767511	24.617639	27.595873	2870.613221	-308.612131	12.219690	-15.031811	
11.0600	25.004306	32.395973	50.295808	45.971734	776.434527	-33.294829	13.280042	35.674635	28.216012	45.000000	-45.000000	1719.138852	429.827583	21.808812	-169.010484	2519.640040	179.019109	11.927578	13.217078	-13.041731	-45.000000	-33.735520	45.000000	-45.000000	4058.598448	-4606.847162	24.522520	27.240857	2870.596952	-308.668364	12.208399	-14.968763	
11.0700	25.031955	32.565707	50.360475	47.010045	775.294428	-33.282428	13.252089	35.708512	28.135953	45.000000	-45.000000	1719.238632	429.817272	21.740330	-168.647936	2519.727030	178.868952	11.853279	13.132693	-13.159195	-45.000000	-33.606999	45.000000	-45.000000	4058.580375	-4606.931335	24.429914	26.886940	2870.580620	-308.744488	12.204555	-14.908120	
11.0800	25.058803	32.737669	50.422674	48.002624	774.169404	-33.270326	13.229074	35.729988	28.052175	45.000000	-45.000000	1719.326540	429.804008	21.680552	-168.276399	2519.822521	178.676433	11.776770	13.062454	-13.279428	-45.000000	-33.484384	45.000000	-45.000000	4058.567662	-4607.014194	24.335106	26.537290	2870.563036	-308.842858	12.206877	-14.852510	
11.0900	25.094268	32.908187	50.471437	48.947916	773.060470	-33.258367	13.197241	35.766119	27.974784	45.000000	-45.000000	1719.417697	429.798331	21.605925	-167.889065	2519.913265	178.444843	11.701550	12.986084	-13.392834	-45.000000	-33.356861	45.000000	-45.000000	4058.556465	-4607.098106	24.240993	26.186146	2870.544506	-308.965296	12.214992	-14.795841	
11.1000	25.125441	33.084111	50.524387	49.843501	771.968560	-33.246685	13.171863	35.784158	27.895762	45.000000	-45.000000	1719.486267	429.788878	21.544830	-167.494160	2520.013983	178.172770	11.625144	12.927137	-13.511065	-45.000000	-33.236546	45.000000	-45.000000	4058.551715	-4607.180874	24.142225	25.839059	2870.521446	-309.116659	12.230913	-14.745062	
11.1100	25.171261	33.255486	50.558320	50.686205	770.894834	-33.235629	13.135954	35.821282	27.834703	45.000000	-45.000000	1719.556915	429.790552	21.466562	-167.080652	2520.111569	177.861603	11.549639	12.866780	-13.621039	-45.000000	-33.116297	45.000000	-45.000000	4058.553426	-4607.269696	24.046571	25.495715	2870.491852	-309.301136	12.257969	-14.696625	
11.1200	25.214140	33.429432	50.587955	51.472419	769.840728	-33.225651	13.103336	35.847311	27.768117	45.000000	-45.000000	1719.610132	429.791501	21.400202	-166.656301	2520.210865	177.508526	11.475485	12.819559	-13.735104	-45.000000	-33.003924	45.000000	-45.000000	4058.553583	-4607.353932	23.944883	25.157634	2870.457790	-309.524527	12.289009	-14.648617	
11.1300	25.263782	33.596029	50.594406	52.198244	768.808180	-33.217203	13.063691	35.888696	27.700259	45.000000	-45.000000	1719.675614	429.802186	21.318668	-166.218056	2520.294857	177.115876	11.406717	12.768375	-13.837328	-45.000000	-32.887266	45.000000	-45.000000	4058.554623	-4607.435545	23.854120	24.811806	2870.420541	-309.789733	12.326468	-14.598267	
11.1400	25.305818	33.761411	50.597892	52.859712	767.799504	-33.210640	13.029201	35.915519	27.622716	45.000000	-45.000000	1719.724868	429.807005	21.253657	-165.772532	2520.381716	176.682227	11.339405	12.732911	-13.942535	-45.000000	-32.779455	45.000000	-45.000000	4058.554674	-4607.507660	23.759411	24.466638	2870.377149	-310.101304	12.367642	-14.547421	
